<svg width="224" height="64" viewBox="0 0 224 64" fill="none" xmlns="http://www.w3.org/2000/svg">
<rect x="80" width="64" height="64" fill="black"/>
<path d="M100.336 49V14.0909H113.7C116.223 14.0909 118.319 14.4886 119.99 15.2841C121.672 16.0682 122.927 17.142 123.757 18.5057C124.598 19.8693 125.018 21.4148 125.018 23.142C125.018 24.5625 124.746 25.7784 124.2 26.7898C123.655 27.7898 122.922 28.6023 122.001 29.2273C121.081 29.8523 120.052 30.3011 118.916 30.5739V30.9148C120.155 30.983 121.342 31.3636 122.478 32.0568C123.626 32.7386 124.564 33.7045 125.291 34.9545C126.018 36.2045 126.382 37.7159 126.382 39.4886C126.382 41.2955 125.944 42.9205 125.069 44.3636C124.194 45.7955 122.876 46.9261 121.115 47.7557C119.353 48.5852 117.138 49 114.467 49H100.336ZM106.66 43.7159H113.461C115.757 43.7159 117.41 43.2784 118.422 42.4034C119.444 41.517 119.956 40.3807 119.956 38.9943C119.956 37.9602 119.7 37.0284 119.189 36.1989C118.677 35.358 117.95 34.6989 117.007 34.2216C116.064 33.733 114.939 33.4886 113.632 33.4886H106.66V43.7159ZM106.66 28.9375H112.916C114.007 28.9375 114.99 28.7386 115.865 28.3409C116.74 27.9318 117.427 27.358 117.927 26.6193C118.439 25.8693 118.694 24.983 118.694 23.9602C118.694 22.608 118.217 21.4943 117.263 20.6193C116.319 19.7443 114.916 19.3068 113.052 19.3068H106.66V28.9375Z" fill="white"/>
<rect x="160" width="64" height="64" fill="black"/>
<path d="M208.154 26.8693H201.779C201.598 25.8239 201.262 24.8977 200.774 24.0909C200.285 23.2727 199.677 22.5795 198.95 22.0114C198.223 21.4432 197.393 21.017 196.461 20.733C195.541 20.4375 194.547 20.2898 193.478 20.2898C191.581 20.2898 189.899 20.767 188.433 21.7216C186.967 22.6648 185.819 24.0511 184.99 25.8807C184.16 27.6989 183.745 29.9205 183.745 32.5455C183.745 35.2159 184.16 37.4659 184.99 39.2955C185.831 41.1136 186.978 42.4886 188.433 43.4205C189.899 44.3409 191.575 44.8011 193.461 44.8011C194.507 44.8011 195.484 44.6648 196.393 44.392C197.314 44.108 198.137 43.6932 198.865 43.1477C199.603 42.6023 200.223 41.9318 200.723 41.1364C201.234 40.3409 201.586 39.4318 201.779 38.4091L208.154 38.4432C207.916 40.1023 207.399 41.6591 206.603 43.1136C205.819 44.5682 204.791 45.8523 203.518 46.9659C202.245 48.0682 200.757 48.9318 199.052 49.5568C197.348 50.1705 195.456 50.4773 193.376 50.4773C190.308 50.4773 187.569 49.767 185.16 48.3466C182.751 46.9261 180.853 44.875 179.467 42.1932C178.081 39.5114 177.387 36.2955 177.387 32.5455C177.387 28.7841 178.086 25.5682 179.484 22.8977C180.882 20.2159 182.785 18.1648 185.194 16.7443C187.603 15.3239 190.331 14.6136 193.376 14.6136C195.319 14.6136 197.126 14.8864 198.797 15.4318C200.467 15.9773 201.956 16.7784 203.262 17.8352C204.569 18.8807 205.643 20.1648 206.484 21.6875C207.336 23.1989 207.893 24.9261 208.154 26.8693Z" fill="white"/>
<rect width="64" height="64" fill="black"/>
<path d="M19.8335 49V14.0909H33.8108C36.379 14.0909 38.521 14.4716 40.2369 15.233C41.9528 15.9943 43.2426 17.0511 44.1062 18.4034C44.9699 19.7443 45.4017 21.2898 45.4017 23.0398C45.4017 24.4034 45.129 25.6023 44.5835 26.6364C44.038 27.6591 43.288 28.5 42.3335 29.1591C41.3903 29.8068 40.3108 30.267 39.0949 30.5398V30.8807C40.4244 30.9375 41.6687 31.3125 42.8278 32.0057C43.9983 32.6989 44.9471 33.6705 45.6744 34.9205C46.4017 36.1591 46.7653 37.6364 46.7653 39.3523C46.7653 41.2045 46.3051 42.858 45.3846 44.3125C44.4755 45.7557 43.129 46.8977 41.3449 47.7386C39.5608 48.5795 37.3619 49 34.7483 49H19.8335ZM27.2142 42.9659H33.2312C35.288 42.9659 36.788 42.5739 37.7312 41.7898C38.6744 40.9943 39.146 39.9375 39.146 38.6193C39.146 37.6534 38.913 36.8011 38.4471 36.0625C37.9812 35.3239 37.3165 34.7443 36.4528 34.3239C35.6005 33.9034 34.5835 33.6932 33.4017 33.6932H27.2142V42.9659ZM27.2142 28.6989H32.6858C33.6971 28.6989 34.5949 28.5227 35.379 28.1705C36.1744 27.8068 36.7994 27.2955 37.254 26.6364C37.7199 25.9773 37.9528 25.1875 37.9528 24.267C37.9528 23.0057 37.504 21.9886 36.6062 21.2159C35.7199 20.4432 34.4585 20.0568 32.8221 20.0568H27.2142V28.6989Z" fill="white"/>
</svg>
